<mxfile host="Electron" agent="Mozilla/5.0 (Windows NT 10.0; Win64; x64) AppleWebKit/537.36 (KHTML, like Gecko) draw.io/24.7.17 Chrome/128.0.6613.36 Electron/32.0.1 Safari/537.36" version="24.7.17">
  <diagram name="Page-1" id="MCYPz-Xu7FjfaQL5rrwA">
    <mxGraphModel dx="1358" dy="654" grid="1" gridSize="10" guides="1" tooltips="1" connect="1" arrows="1" fold="1" page="1" pageScale="1" pageWidth="850" pageHeight="1100" math="0" shadow="0">
      <root>
        <mxCell id="0" />
        <mxCell id="1" parent="0" />
        <mxCell id="BILgD8TYkP4pTrTiqMYU-1" value="User (Admin/Manager/Associate/Cashier/Supplier)" style="shape=umlLifeline;perimeter=lifelinePerimeter;whiteSpace=wrap;container=1;dropTarget=0;collapsible=0;recursiveResize=0;outlineConnect=0;portConstraint=eastwest;newEdgeStyle={&quot;edgeStyle&quot;:&quot;elbowEdgeStyle&quot;,&quot;elbow&quot;:&quot;vertical&quot;,&quot;curved&quot;:0,&quot;rounded&quot;:0};size=65;" vertex="1" parent="1">
          <mxGeometry x="20" y="20" width="376" height="2286" as="geometry" />
        </mxCell>
        <mxCell id="BILgD8TYkP4pTrTiqMYU-2" value="Login Interface" style="shape=umlLifeline;perimeter=lifelinePerimeter;whiteSpace=wrap;container=1;dropTarget=0;collapsible=0;recursiveResize=0;outlineConnect=0;portConstraint=eastwest;newEdgeStyle={&quot;edgeStyle&quot;:&quot;elbowEdgeStyle&quot;,&quot;elbow&quot;:&quot;vertical&quot;,&quot;curved&quot;:0,&quot;rounded&quot;:0};size=65;" vertex="1" parent="1">
          <mxGeometry x="477" y="20" width="150" height="2286" as="geometry" />
        </mxCell>
        <mxCell id="BILgD8TYkP4pTrTiqMYU-3" value="Authentication Controller" style="shape=umlLifeline;perimeter=lifelinePerimeter;whiteSpace=wrap;container=1;dropTarget=0;collapsible=0;recursiveResize=0;outlineConnect=0;portConstraint=eastwest;newEdgeStyle={&quot;edgeStyle&quot;:&quot;elbowEdgeStyle&quot;,&quot;elbow&quot;:&quot;vertical&quot;,&quot;curved&quot;:0,&quot;rounded&quot;:0};size=65;" vertex="1" parent="1">
          <mxGeometry x="702" y="20" width="200" height="2286" as="geometry" />
        </mxCell>
        <mxCell id="BILgD8TYkP4pTrTiqMYU-4" value="Users Table" style="shape=umlLifeline;perimeter=lifelinePerimeter;whiteSpace=wrap;container=1;dropTarget=0;collapsible=0;recursiveResize=0;outlineConnect=0;portConstraint=eastwest;newEdgeStyle={&quot;edgeStyle&quot;:&quot;elbowEdgeStyle&quot;,&quot;elbow&quot;:&quot;vertical&quot;,&quot;curved&quot;:0,&quot;rounded&quot;:0};size=65;" vertex="1" parent="1">
          <mxGeometry x="969" y="20" width="150" height="2286" as="geometry" />
        </mxCell>
        <mxCell id="BILgD8TYkP4pTrTiqMYU-5" value="Role/Permission System" style="shape=umlLifeline;perimeter=lifelinePerimeter;whiteSpace=wrap;container=1;dropTarget=0;collapsible=0;recursiveResize=0;outlineConnect=0;portConstraint=eastwest;newEdgeStyle={&quot;edgeStyle&quot;:&quot;elbowEdgeStyle&quot;,&quot;elbow&quot;:&quot;vertical&quot;,&quot;curved&quot;:0,&quot;rounded&quot;:0};size=65;" vertex="1" parent="1">
          <mxGeometry x="1169" y="20" width="187" height="2286" as="geometry" />
        </mxCell>
        <mxCell id="BILgD8TYkP4pTrTiqMYU-6" value="Session Manager" style="shape=umlLifeline;perimeter=lifelinePerimeter;whiteSpace=wrap;container=1;dropTarget=0;collapsible=0;recursiveResize=0;outlineConnect=0;portConstraint=eastwest;newEdgeStyle={&quot;edgeStyle&quot;:&quot;elbowEdgeStyle&quot;,&quot;elbow&quot;:&quot;vertical&quot;,&quot;curved&quot;:0,&quot;rounded&quot;:0};size=65;" vertex="1" parent="1">
          <mxGeometry x="1406" y="20" width="150" height="2286" as="geometry" />
        </mxCell>
        <mxCell id="BILgD8TYkP4pTrTiqMYU-7" value="Dashboard/Home" style="shape=umlLifeline;perimeter=lifelinePerimeter;whiteSpace=wrap;container=1;dropTarget=0;collapsible=0;recursiveResize=0;outlineConnect=0;portConstraint=eastwest;newEdgeStyle={&quot;edgeStyle&quot;:&quot;elbowEdgeStyle&quot;,&quot;elbow&quot;:&quot;vertical&quot;,&quot;curved&quot;:0,&quot;rounded&quot;:0};size=65;" vertex="1" parent="1">
          <mxGeometry x="1606" y="20" width="150" height="2286" as="geometry" />
        </mxCell>
        <mxCell id="BILgD8TYkP4pTrTiqMYU-8" value="alt" style="shape=umlFrame;dashed=1;pointerEvents=0;dropTarget=0;strokeColor=#B3B3B3;height=20;width=30" vertex="1" parent="1">
          <mxGeometry x="197" y="597" width="1495" height="664" as="geometry" />
        </mxCell>
        <mxCell id="BILgD8TYkP4pTrTiqMYU-9" value="[User is active]" style="text;strokeColor=none;fillColor=none;align=center;verticalAlign=middle;whiteSpace=wrap;" vertex="1" parent="BILgD8TYkP4pTrTiqMYU-8">
          <mxGeometry x="30" width="1465" height="20" as="geometry" />
        </mxCell>
        <mxCell id="BILgD8TYkP4pTrTiqMYU-10" value="[User inactive/blocked]" style="shape=line;dashed=1;whiteSpace=wrap;verticalAlign=top;labelPosition=center;verticalLabelPosition=middle;align=center;strokeColor=#B3B3B3;" vertex="1" parent="BILgD8TYkP4pTrTiqMYU-8">
          <mxGeometry y="514" width="1495" height="3" as="geometry" />
        </mxCell>
        <mxCell id="BILgD8TYkP4pTrTiqMYU-11" value="alt" style="shape=umlFrame;dashed=1;pointerEvents=0;dropTarget=0;strokeColor=#B3B3B3;height=20;width=30" vertex="1" parent="1">
          <mxGeometry x="187" y="442" width="1515" height="984" as="geometry" />
        </mxCell>
        <mxCell id="BILgD8TYkP4pTrTiqMYU-12" value="[Password valid]" style="text;strokeColor=none;fillColor=none;align=center;verticalAlign=middle;whiteSpace=wrap;" vertex="1" parent="BILgD8TYkP4pTrTiqMYU-11">
          <mxGeometry x="30" width="1485" height="20" as="geometry" />
        </mxCell>
        <mxCell id="BILgD8TYkP4pTrTiqMYU-13" value="[Password invalid]" style="shape=line;dashed=1;whiteSpace=wrap;verticalAlign=top;labelPosition=center;verticalLabelPosition=middle;align=center;strokeColor=#B3B3B3;" vertex="1" parent="BILgD8TYkP4pTrTiqMYU-11">
          <mxGeometry y="834" width="1515" height="3" as="geometry" />
        </mxCell>
        <mxCell id="BILgD8TYkP4pTrTiqMYU-14" value="alt" style="shape=umlFrame;dashed=1;pointerEvents=0;dropTarget=0;strokeColor=#B3B3B3;height=20;width=30" vertex="1" parent="1">
          <mxGeometry x="177" y="311" width="1535" height="1280" as="geometry" />
        </mxCell>
        <mxCell id="BILgD8TYkP4pTrTiqMYU-15" value="[User exists]" style="text;strokeColor=none;fillColor=none;align=center;verticalAlign=middle;whiteSpace=wrap;" vertex="1" parent="BILgD8TYkP4pTrTiqMYU-14">
          <mxGeometry x="30" width="1505" height="20" as="geometry" />
        </mxCell>
        <mxCell id="BILgD8TYkP4pTrTiqMYU-16" value="[User doesn&#39;t exist]" style="shape=line;dashed=1;whiteSpace=wrap;verticalAlign=top;labelPosition=center;verticalLabelPosition=middle;align=center;strokeColor=#B3B3B3;" vertex="1" parent="BILgD8TYkP4pTrTiqMYU-14">
          <mxGeometry y="1130" width="1535" height="3" as="geometry" />
        </mxCell>
        <mxCell id="BILgD8TYkP4pTrTiqMYU-17" value="Enter credentials (username/password)" style="verticalAlign=bottom;edgeStyle=elbowEdgeStyle;elbow=vertical;curved=0;rounded=0;endArrow=block;" edge="1" parent="1" source="BILgD8TYkP4pTrTiqMYU-1" target="BILgD8TYkP4pTrTiqMYU-2">
          <mxGeometry relative="1" as="geometry">
            <Array as="points">
              <mxPoint x="389" y="129" />
            </Array>
          </mxGeometry>
        </mxCell>
        <mxCell id="BILgD8TYkP4pTrTiqMYU-18" value="Submit login request" style="verticalAlign=bottom;edgeStyle=elbowEdgeStyle;elbow=vertical;curved=0;rounded=0;endArrow=block;" edge="1" parent="1" source="BILgD8TYkP4pTrTiqMYU-2" target="BILgD8TYkP4pTrTiqMYU-3">
          <mxGeometry relative="1" as="geometry">
            <Array as="points">
              <mxPoint x="686" y="183" />
            </Array>
          </mxGeometry>
        </mxCell>
        <mxCell id="BILgD8TYkP4pTrTiqMYU-19" value="Query user by username" style="verticalAlign=bottom;edgeStyle=elbowEdgeStyle;elbow=vertical;curved=0;rounded=0;endArrow=block;" edge="1" parent="1" source="BILgD8TYkP4pTrTiqMYU-3" target="BILgD8TYkP4pTrTiqMYU-4">
          <mxGeometry relative="1" as="geometry">
            <Array as="points">
              <mxPoint x="932" y="237" />
            </Array>
          </mxGeometry>
        </mxCell>
        <mxCell id="BILgD8TYkP4pTrTiqMYU-20" value="Return user data or null" style="verticalAlign=bottom;edgeStyle=elbowEdgeStyle;elbow=vertical;curved=0;rounded=0;dashed=1;dashPattern=2 3;endArrow=block;" edge="1" parent="1" source="BILgD8TYkP4pTrTiqMYU-4" target="BILgD8TYkP4pTrTiqMYU-3">
          <mxGeometry relative="1" as="geometry">
            <Array as="points">
              <mxPoint x="935" y="291" />
            </Array>
          </mxGeometry>
        </mxCell>
        <mxCell id="BILgD8TYkP4pTrTiqMYU-21" value="Validate password hash" style="curved=1;endArrow=block;rounded=0;" edge="1" parent="1" source="BILgD8TYkP4pTrTiqMYU-3" target="BILgD8TYkP4pTrTiqMYU-3">
          <mxGeometry relative="1" as="geometry">
            <Array as="points">
              <mxPoint x="853" y="392" />
              <mxPoint x="853" y="422" />
            </Array>
          </mxGeometry>
        </mxCell>
        <mxCell id="BILgD8TYkP4pTrTiqMYU-22" value="Get user role and permissions" style="verticalAlign=bottom;edgeStyle=elbowEdgeStyle;elbow=vertical;curved=0;rounded=0;endArrow=block;" edge="1" parent="1" source="BILgD8TYkP4pTrTiqMYU-3" target="BILgD8TYkP4pTrTiqMYU-5">
          <mxGeometry relative="1" as="geometry">
            <Array as="points">
              <mxPoint x="1041" y="523" />
            </Array>
          </mxGeometry>
        </mxCell>
        <mxCell id="BILgD8TYkP4pTrTiqMYU-23" value="Return role data" style="verticalAlign=bottom;edgeStyle=elbowEdgeStyle;elbow=vertical;curved=0;rounded=0;dashed=1;dashPattern=2 3;endArrow=block;" edge="1" parent="1" source="BILgD8TYkP4pTrTiqMYU-5" target="BILgD8TYkP4pTrTiqMYU-3">
          <mxGeometry relative="1" as="geometry">
            <Array as="points">
              <mxPoint x="1044" y="577" />
            </Array>
          </mxGeometry>
        </mxCell>
        <mxCell id="BILgD8TYkP4pTrTiqMYU-24" value="Create session" style="verticalAlign=bottom;edgeStyle=elbowEdgeStyle;elbow=vertical;curved=0;rounded=0;endArrow=block;" edge="1" parent="1" source="BILgD8TYkP4pTrTiqMYU-3" target="BILgD8TYkP4pTrTiqMYU-6">
          <mxGeometry relative="1" as="geometry">
            <Array as="points">
              <mxPoint x="1150" y="678" />
            </Array>
          </mxGeometry>
        </mxCell>
        <mxCell id="BILgD8TYkP4pTrTiqMYU-25" value="Return session token" style="verticalAlign=bottom;edgeStyle=elbowEdgeStyle;elbow=vertical;curved=0;rounded=0;dashed=1;dashPattern=2 3;endArrow=block;" edge="1" parent="1" source="BILgD8TYkP4pTrTiqMYU-6" target="BILgD8TYkP4pTrTiqMYU-3">
          <mxGeometry relative="1" as="geometry">
            <Array as="points">
              <mxPoint x="1153" y="732" />
            </Array>
          </mxGeometry>
        </mxCell>
        <mxCell id="BILgD8TYkP4pTrTiqMYU-26" value="Set role-based permissions" style="curved=1;endArrow=block;rounded=0;" edge="1" parent="1" source="BILgD8TYkP4pTrTiqMYU-3" target="BILgD8TYkP4pTrTiqMYU-3">
          <mxGeometry relative="1" as="geometry">
            <Array as="points">
              <mxPoint x="853" y="786" />
              <mxPoint x="853" y="816" />
            </Array>
          </mxGeometry>
        </mxCell>
        <mxCell id="BILgD8TYkP4pTrTiqMYU-27" value="Authentication successful" style="verticalAlign=bottom;edgeStyle=elbowEdgeStyle;elbow=vertical;curved=0;rounded=0;dashed=1;dashPattern=2 3;endArrow=block;" edge="1" parent="1" source="BILgD8TYkP4pTrTiqMYU-3" target="BILgD8TYkP4pTrTiqMYU-2">
          <mxGeometry relative="1" as="geometry">
            <Array as="points">
              <mxPoint x="689" y="870" />
            </Array>
          </mxGeometry>
        </mxCell>
        <mxCell id="BILgD8TYkP4pTrTiqMYU-28" value="Redirect to dashboard" style="verticalAlign=bottom;edgeStyle=elbowEdgeStyle;elbow=vertical;curved=0;rounded=0;endArrow=block;" edge="1" parent="1" source="BILgD8TYkP4pTrTiqMYU-2" target="BILgD8TYkP4pTrTiqMYU-7">
          <mxGeometry relative="1" as="geometry">
            <Array as="points">
              <mxPoint x="1125" y="924" />
            </Array>
          </mxGeometry>
        </mxCell>
        <mxCell id="BILgD8TYkP4pTrTiqMYU-29" value="Load role-specific menu/features" style="verticalAlign=bottom;edgeStyle=elbowEdgeStyle;elbow=vertical;curved=0;rounded=0;endArrow=block;" edge="1" parent="1" source="BILgD8TYkP4pTrTiqMYU-7" target="BILgD8TYkP4pTrTiqMYU-5">
          <mxGeometry relative="1" as="geometry">
            <Array as="points">
              <mxPoint x="1483" y="978" />
            </Array>
          </mxGeometry>
        </mxCell>
        <mxCell id="BILgD8TYkP4pTrTiqMYU-30" value="Return permitted actions" style="verticalAlign=bottom;edgeStyle=elbowEdgeStyle;elbow=vertical;curved=0;rounded=0;dashed=1;dashPattern=2 3;endArrow=block;" edge="1" parent="1" source="BILgD8TYkP4pTrTiqMYU-5" target="BILgD8TYkP4pTrTiqMYU-7">
          <mxGeometry relative="1" as="geometry">
            <Array as="points">
              <mxPoint x="1480" y="1032" />
            </Array>
          </mxGeometry>
        </mxCell>
        <mxCell id="BILgD8TYkP4pTrTiqMYU-31" value="Display role-based dashboard" style="verticalAlign=bottom;edgeStyle=elbowEdgeStyle;elbow=vertical;curved=0;rounded=0;dashed=1;dashPattern=2 3;endArrow=block;" edge="1" parent="1" source="BILgD8TYkP4pTrTiqMYU-7" target="BILgD8TYkP4pTrTiqMYU-1">
          <mxGeometry relative="1" as="geometry">
            <Array as="points">
              <mxPoint x="956" y="1086" />
            </Array>
          </mxGeometry>
        </mxCell>
        <mxCell id="BILgD8TYkP4pTrTiqMYU-32" value="Account disabled error" style="verticalAlign=bottom;edgeStyle=elbowEdgeStyle;elbow=vertical;curved=0;rounded=0;dashed=1;dashPattern=2 3;endArrow=block;" edge="1" parent="1" source="BILgD8TYkP4pTrTiqMYU-3" target="BILgD8TYkP4pTrTiqMYU-2">
          <mxGeometry relative="1" as="geometry">
            <Array as="points">
              <mxPoint x="689" y="1187" />
            </Array>
          </mxGeometry>
        </mxCell>
        <mxCell id="BILgD8TYkP4pTrTiqMYU-33" value="Display error message" style="verticalAlign=bottom;edgeStyle=elbowEdgeStyle;elbow=vertical;curved=0;rounded=0;dashed=1;dashPattern=2 3;endArrow=block;" edge="1" parent="1" source="BILgD8TYkP4pTrTiqMYU-2" target="BILgD8TYkP4pTrTiqMYU-1">
          <mxGeometry relative="1" as="geometry">
            <Array as="points">
              <mxPoint x="392" y="1241" />
            </Array>
          </mxGeometry>
        </mxCell>
        <mxCell id="BILgD8TYkP4pTrTiqMYU-34" value="Invalid credentials error" style="verticalAlign=bottom;edgeStyle=elbowEdgeStyle;elbow=vertical;curved=0;rounded=0;dashed=1;dashPattern=2 3;endArrow=block;" edge="1" parent="1" source="BILgD8TYkP4pTrTiqMYU-3" target="BILgD8TYkP4pTrTiqMYU-2">
          <mxGeometry relative="1" as="geometry">
            <Array as="points">
              <mxPoint x="689" y="1352" />
            </Array>
          </mxGeometry>
        </mxCell>
        <mxCell id="BILgD8TYkP4pTrTiqMYU-35" value="Display error message" style="verticalAlign=bottom;edgeStyle=elbowEdgeStyle;elbow=vertical;curved=0;rounded=0;dashed=1;dashPattern=2 3;endArrow=block;" edge="1" parent="1" source="BILgD8TYkP4pTrTiqMYU-2" target="BILgD8TYkP4pTrTiqMYU-1">
          <mxGeometry relative="1" as="geometry">
            <Array as="points">
              <mxPoint x="392" y="1406" />
            </Array>
          </mxGeometry>
        </mxCell>
        <mxCell id="BILgD8TYkP4pTrTiqMYU-36" value="Invalid credentials error" style="verticalAlign=bottom;edgeStyle=elbowEdgeStyle;elbow=vertical;curved=0;rounded=0;dashed=1;dashPattern=2 3;endArrow=block;" edge="1" parent="1" source="BILgD8TYkP4pTrTiqMYU-3" target="BILgD8TYkP4pTrTiqMYU-2">
          <mxGeometry relative="1" as="geometry">
            <Array as="points">
              <mxPoint x="689" y="1517" />
            </Array>
          </mxGeometry>
        </mxCell>
        <mxCell id="BILgD8TYkP4pTrTiqMYU-37" value="Display error message" style="verticalAlign=bottom;edgeStyle=elbowEdgeStyle;elbow=vertical;curved=0;rounded=0;dashed=1;dashPattern=2 3;endArrow=block;" edge="1" parent="1" source="BILgD8TYkP4pTrTiqMYU-2" target="BILgD8TYkP4pTrTiqMYU-1">
          <mxGeometry relative="1" as="geometry">
            <Array as="points">
              <mxPoint x="392" y="1571" />
            </Array>
          </mxGeometry>
        </mxCell>
        <mxCell id="BILgD8TYkP4pTrTiqMYU-38" value="Session timeout notification" style="verticalAlign=bottom;edgeStyle=elbowEdgeStyle;elbow=vertical;curved=0;rounded=0;endArrow=block;" edge="1" parent="1" source="BILgD8TYkP4pTrTiqMYU-6" target="BILgD8TYkP4pTrTiqMYU-3">
          <mxGeometry relative="1" as="geometry">
            <Array as="points">
              <mxPoint x="1153" y="1683" />
            </Array>
          </mxGeometry>
        </mxCell>
        <mxCell id="BILgD8TYkP4pTrTiqMYU-39" value="Redirect to login" style="verticalAlign=bottom;edgeStyle=elbowEdgeStyle;elbow=vertical;curved=0;rounded=0;endArrow=block;" edge="1" parent="1" source="BILgD8TYkP4pTrTiqMYU-3" target="BILgD8TYkP4pTrTiqMYU-2">
          <mxGeometry relative="1" as="geometry">
            <Array as="points">
              <mxPoint x="689" y="1737" />
            </Array>
          </mxGeometry>
        </mxCell>
        <mxCell id="BILgD8TYkP4pTrTiqMYU-40" value="Session expired, please login again" style="verticalAlign=bottom;edgeStyle=elbowEdgeStyle;elbow=vertical;curved=0;rounded=0;dashed=1;dashPattern=2 3;endArrow=block;" edge="1" parent="1" source="BILgD8TYkP4pTrTiqMYU-2" target="BILgD8TYkP4pTrTiqMYU-1">
          <mxGeometry relative="1" as="geometry">
            <Array as="points">
              <mxPoint x="392" y="1791" />
            </Array>
          </mxGeometry>
        </mxCell>
        <mxCell id="BILgD8TYkP4pTrTiqMYU-41" value="Click logout" style="verticalAlign=bottom;edgeStyle=elbowEdgeStyle;elbow=vertical;curved=0;rounded=0;endArrow=block;" edge="1" parent="1" source="BILgD8TYkP4pTrTiqMYU-1" target="BILgD8TYkP4pTrTiqMYU-7">
          <mxGeometry relative="1" as="geometry">
            <Array as="points">
              <mxPoint x="953" y="1845" />
            </Array>
          </mxGeometry>
        </mxCell>
        <mxCell id="BILgD8TYkP4pTrTiqMYU-42" value="Destroy session" style="verticalAlign=bottom;edgeStyle=elbowEdgeStyle;elbow=vertical;curved=0;rounded=0;endArrow=block;" edge="1" parent="1" source="BILgD8TYkP4pTrTiqMYU-7" target="BILgD8TYkP4pTrTiqMYU-6">
          <mxGeometry relative="1" as="geometry">
            <Array as="points">
              <mxPoint x="1593" y="1899" />
            </Array>
          </mxGeometry>
        </mxCell>
        <mxCell id="BILgD8TYkP4pTrTiqMYU-43" value="Session destroyed" style="verticalAlign=bottom;edgeStyle=elbowEdgeStyle;elbow=vertical;curved=0;rounded=0;dashed=1;dashPattern=2 3;endArrow=block;" edge="1" parent="1" source="BILgD8TYkP4pTrTiqMYU-6" target="BILgD8TYkP4pTrTiqMYU-7">
          <mxGeometry relative="1" as="geometry">
            <Array as="points">
              <mxPoint x="1590" y="1953" />
            </Array>
          </mxGeometry>
        </mxCell>
        <mxCell id="BILgD8TYkP4pTrTiqMYU-44" value="Redirect to login page" style="verticalAlign=bottom;edgeStyle=elbowEdgeStyle;elbow=vertical;curved=0;rounded=0;endArrow=block;" edge="1" parent="1" source="BILgD8TYkP4pTrTiqMYU-7" target="BILgD8TYkP4pTrTiqMYU-2">
          <mxGeometry relative="1" as="geometry">
            <Array as="points">
              <mxPoint x="1128" y="2007" />
            </Array>
          </mxGeometry>
        </mxCell>
        <mxCell id="BILgD8TYkP4pTrTiqMYU-45" value="Display login form" style="verticalAlign=bottom;edgeStyle=elbowEdgeStyle;elbow=vertical;curved=0;rounded=0;dashed=1;dashPattern=2 3;endArrow=block;" edge="1" parent="1" source="BILgD8TYkP4pTrTiqMYU-2" target="BILgD8TYkP4pTrTiqMYU-1">
          <mxGeometry relative="1" as="geometry">
            <Array as="points">
              <mxPoint x="392" y="2061" />
            </Array>
          </mxGeometry>
        </mxCell>
        <mxCell id="BILgD8TYkP4pTrTiqMYU-46" value="Session expires after inactivity" style="fillColor=#ffff88;strokeColor=#9E916F;" vertex="1" parent="1">
          <mxGeometry x="1366" y="1601" width="231" height="48" as="geometry" />
        </mxCell>
        <mxCell id="BILgD8TYkP4pTrTiqMYU-47" value="Role Permissions:&#xa;Admin: Full access&#xa;Store Manager: Branch-specific&#xa;Sales Associate: Limited branch access&#xa;Cashier: Sales &amp; payments only&#xa;Supplier: Order management only" style="fillColor=#ffff88;strokeColor=#9E916F;" vertex="1" parent="1">
          <mxGeometry x="1118" y="2081" width="289" height="140" as="geometry" />
        </mxCell>
      </root>
    </mxGraphModel>
  </diagram>
</mxfile>
